<svg xmlns="http://www.w3.org/2000/svg" viewBox="0 0 48 48"><title>17analytics</title><g id="_17analytics" data-name="17analytics" fill="#fedb71"><path d="M43,42H5a5.006,5.006,0,0,1-5-5V13A5.006,5.006,0,0,1,5,8H8v2H5a3,3,0,0,0-3,3V37a3,3,0,0,0,3,3H43a3,3,0,0,0,3-3V34h2v3A5.006,5.006,0,0,1,43,42Z"/><rect x="14" y="46" width="20" height="2"/><rect x="17" y="41" width="2" height="6"/><rect x="29" y="41" width="2" height="6"/><path d="M28,24A12,12,0,1,1,40,12,12.013,12.013,0,0,1,28,24ZM28,2A10,10,0,1,0,38,12,10.011,10.011,0,0,0,28,2Z"/><path d="M29,13H27a3,3,0,0,1,0-6h2a3,3,0,0,1,3,3H30a1,1,0,0,0-1-1H27a1,1,0,0,0,0,2h2Z"/><path d="M29,17H27a3,3,0,0,1-3-3h2a1,1,0,0,0,1,1h2a1,1,0,0,0,0-2H27V11h2a3,3,0,0,1,0,6Z"/><rect x="27" y="6" width="2" height="2"/><rect x="27" y="16" width="2" height="2"/><path d="M44.8,32a3.2,3.2,0,0,1-2.267-.936l-6.236-6.237a1,1,0,0,1,0-1.414l3.118-3.118a1,1,0,0,1,1.414,0l6.237,6.236a3.212,3.212,0,0,1,0,4.533h0A3.2,3.2,0,0,1,44.8,32Zm-6.382-7.88,5.529,5.529a1.2,1.2,0,1,0,1.7-1.7l-5.529-5.529Z"/><rect x="36.5" y="19.379" width="2" height="4.243" transform="translate(-4.219 32.814) rotate(-45)"/><rect x="6" y="35" width="36" height="2"/><path d="M12,36H10V3a1,1,0,0,1,1-1h5V4H12Z"/><rect x="15" y="21" width="2" height="15"/><path d="M28,36H26V29H23v7H21V28a1,1,0,0,1,1-1h5a1,1,0,0,1,1,1Z"/><path d="M39,36H37V32H34v4H32V31a1,1,0,0,1,1-1h5a1,1,0,0,1,1,1Z"/><path d="M48,24H46V13a3,3,0,0,0-3-3H42V8h1a5.006,5.006,0,0,1,5,5Z"/></g></svg>